<svg xmlns="http://www.w3.org/2000/svg" width="40" height="40" fill="none" viewBox="0 0 40 40">
  <path fill="#C4C4C4" d="M19.984 3C10.324 2.996 2.5 10.816 2.5 20.469c0 7.633 4.895 14.12 11.71 16.504.919.23.778-.422.778-.867v-3.028c-5.3.621-5.515-2.887-5.87-3.473-.72-1.226-2.419-1.539-1.911-2.125 1.207-.62 2.438.157 3.863 2.262 1.032 1.527 3.043 1.27 4.063 1.016.223-.918.699-1.738 1.355-2.375-5.492-.985-7.781-4.336-7.781-8.32 0-1.934.637-3.711 1.887-5.145-.797-2.363.074-4.387.191-4.688 2.27-.203 4.63 1.625 4.813 1.77 1.289-.348 2.761-.531 4.41-.531 1.656 0 3.133.191 4.433.543.442-.336 2.63-1.907 4.739-1.715.113.3.965 2.277.215 4.61 1.265 1.437 1.91 3.23 1.91 5.167 0 3.992-2.305 7.348-7.813 8.317a4.984 4.984 0 011.488 3.554v4.395c.032.351 0 .7.586.7 6.918-2.333 11.899-8.868 11.899-16.567C37.465 10.816 29.637 3 19.985 3z"/>
</svg>
