<svg xmlns="http://www.w3.org/2000/svg" width="40" height="40" fill="none" viewBox="0 0 40 40">
  <path fill="#C4C4C4" d="M38.4 0H1.6C.715 0 0 .715 0 1.6v36.8c0 .885.715 1.6 1.6 1.6h36.8c.885 0 1.6-.715 1.6-1.6V1.6c0-.885-.715-1.6-1.6-1.6zM11.865 34.085H5.93v-19.09h5.935v19.09zM8.9 12.385a3.44 3.44 0 113.44-3.44 3.446 3.446 0 01-3.44 3.44zm25.185 21.7h-5.93V24.8c0-2.215-.04-5.06-3.085-5.06-3.085 0-3.56 2.41-3.56 4.9v9.445h-5.925v-19.09h5.69v2.61h.08c.79-1.5 2.725-3.085 5.615-3.085 6.01 0 7.115 3.955 7.115 9.095v10.47z"/>
</svg>
