<svg xmlns="http://www.w3.org/2000/svg" width="40" height="40" fill="none" viewBox="0 0 40 40">
  <path fill="#C4C4C4" d="M36.25 8.137a13.358 13.358 0 01-3.836 1.031 6.644 6.644 0 002.93-3.672 13.15 13.15 0 01-4.227 1.61A6.643 6.643 0 0026.25 5a6.66 6.66 0 00-6.66 6.664c0 .516.062 1.031.164 1.527A18.93 18.93 0 016.019 6.22a6.614 6.614 0 00-.906 3.363 6.665 6.665 0 002.969 5.55 6.719 6.719 0 01-3.012-.847v.082a6.662 6.662 0 005.34 6.54 7.052 7.052 0 01-1.754.226 8.86 8.86 0 01-1.258-.102 6.673 6.673 0 006.227 4.621 13.35 13.35 0 01-8.27 2.848c-.558 0-1.074-.02-1.609-.082a18.862 18.862 0 0010.23 2.988c12.25 0 18.954-10.148 18.954-18.957 0-.289 0-.578-.02-.867a14.344 14.344 0 003.34-3.445z"/>
</svg>
